<svg width="42" height="16" viewBox="0 0 42 16" fill="none" xmlns="http://www.w3.org/2000/svg">
<rect width="42" height="16" rx="8" fill="#5A60E7"/>
<path d="M7.508 11.172C8.012 11.748 8.708 12.132 9.728 12.132C11.972 12.132 12.98 10.164 12.98 8.004C12.98 5.82 12.128 3.864 9.884 3.864C8.144 3.864 7.088 5.1 7.088 6.48C7.088 8.184 8.276 9.036 9.716 9.036C10.736 9.036 11.624 8.34 11.972 7.788C11.984 7.896 11.984 8.004 11.984 8.112C11.984 9.624 11.348 11.244 9.728 11.244C8.9 11.244 8.42 10.908 8.012 10.428L7.508 11.172ZM11.936 6.984C11.516 7.692 10.736 8.172 9.944 8.172C8.912 8.172 8.096 7.62 8.096 6.444C8.096 5.688 8.708 4.752 9.932 4.752C11.324 4.752 11.852 5.988 11.936 6.984ZM14.5978 11.172C15.1018 11.748 15.7978 12.132 16.8178 12.132C19.0618 12.132 20.0698 10.164 20.0698 8.004C20.0698 5.82 19.2178 3.864 16.9738 3.864C15.2338 3.864 14.1778 5.1 14.1778 6.48C14.1778 8.184 15.3658 9.036 16.8058 9.036C17.8258 9.036 18.7138 8.34 19.0618 7.788C19.0738 7.896 19.0738 8.004 19.0738 8.112C19.0738 9.624 18.4378 11.244 16.8178 11.244C15.9898 11.244 15.5098 10.908 15.1018 10.428L14.5978 11.172ZM19.0258 6.984C18.6058 7.692 17.8258 8.172 17.0338 8.172C16.0018 8.172 15.1858 7.62 15.1858 6.444C15.1858 5.688 15.7978 4.752 17.0218 4.752C18.4138 4.752 18.9418 5.988 19.0258 6.984ZM21.6877 11.172C22.1917 11.748 22.8877 12.132 23.9077 12.132C26.1517 12.132 27.1597 10.164 27.1597 8.004C27.1597 5.82 26.3077 3.864 24.0637 3.864C22.3237 3.864 21.2677 5.1 21.2677 6.48C21.2677 8.184 22.4557 9.036 23.8957 9.036C24.9157 9.036 25.8037 8.34 26.1517 7.788C26.1637 7.896 26.1637 8.004 26.1637 8.112C26.1637 9.624 25.5277 11.244 23.9077 11.244C23.0797 11.244 22.5997 10.908 22.1917 10.428L21.6877 11.172ZM26.1157 6.984C25.6957 7.692 24.9157 8.172 24.1237 8.172C23.0917 8.172 22.2757 7.62 22.2757 6.444C22.2757 5.688 22.8877 4.752 24.1117 4.752C25.5037 4.752 26.0317 5.988 26.1157 6.984Z" fill="#EFEFFD"/>
<path d="M37.125 8L34.5 5.25L31.875 8" stroke="#86E3CE" stroke-linecap="round" stroke-linejoin="round"/>
<path d="M34.5 11.75V5.75" stroke="#86E3CE" stroke-linecap="round" stroke-linejoin="round"/>
</svg>
